<svg class="ut-logotype" xmlns="http://www.w3.org/2000/svg" viewBox="0 0 200 52" aria-hidden="true">
    <path fill="var(--logo-fill-ut-bubble)"
        d="M87.0813 8.60781C87.0813 4.25724 83.5494 0.700012 79.1733 0.700012H8.20784C3.85728 0.700012 0.300049 4.23165 0.300049 8.60781V34.66C0.300049 39.0106 3.83169 42.5678 8.20784 42.5678H59.5957L73.5175 51.8576L70.7281 42.5678H79.2245C83.5494 42.5422 87.1067 39.0106 87.0813 34.66V8.60781ZM15.2966 26.8802C15.7061 27.5968 16.2435 28.1598 16.9345 28.5181C17.6255 28.9019 18.3676 29.0811 19.2121 29.0811C20.0567 29.0811 20.8244 28.8763 21.5154 28.4925C22.2064 28.083 22.7694 27.52 23.1532 26.8034C23.5627 26.0613 23.7674 25.2423 23.7674 24.2954V12.6001C23.7674 12.421 23.8186 12.293 23.921 12.1906C24.0234 12.0883 24.1513 12.0371 24.3305 12.0371H27.1711C27.3503 12.0371 27.5038 12.0883 27.6062 12.1906C27.6574 12.2418 27.7085 12.3186 27.7341 12.3698C27.7597 12.4465 27.7853 12.5233 27.7597 12.6001V24.2699C27.7597 26.138 27.3758 27.6991 26.6081 28.9787C25.8404 30.2327 24.8167 31.1796 23.5371 31.7682C22.2575 32.3824 20.7988 32.6639 19.2121 32.6639C17.6255 32.6639 16.1923 32.3568 14.8872 31.7426C13.582 31.1284 12.5583 30.1815 11.7906 28.9275C11.0228 27.6735 10.639 26.1124 10.639 24.2443V12.6001C10.639 12.4465 10.6901 12.3186 10.7925 12.2162L10.7925 12.2162C10.8437 12.165 10.8949 12.1139 10.9461 12.0883C10.9972 12.0627 11.074 12.0371 11.1508 12.0371H14.145C14.3241 12.0371 14.4777 12.0883 14.5545 12.1906C14.6312 12.293 14.6824 12.421 14.6824 12.6001V24.2954C14.6824 25.2935 14.8872 26.1636 15.2966 26.8802ZM30.4981 29.1578C30.4725 29.0811 30.4469 28.9787 30.4469 28.9019C30.4469 28.7228 30.5237 28.5692 30.6773 28.4157L32.4431 27.1617C32.5455 27.1105 32.6478 27.0593 32.7502 27.0593C32.9293 27.0593 33.0829 27.1617 33.2364 27.3664C33.6715 27.9806 34.1577 28.4669 34.6696 28.8251C35.1814 29.1834 35.8212 29.3626 36.5889 29.3626C37.0496 29.3626 37.5358 29.2602 37.9709 29.1067C38.4315 28.9275 38.7898 28.6972 39.0969 28.3901C39.3784 28.083 39.532 27.7247 39.532 27.3408C39.532 26.9314 39.4552 26.6243 39.276 26.3939C39.1225 26.1636 38.8922 26.0101 38.5851 25.8821C38.3036 25.7542 37.8429 25.6006 37.2287 25.4215C37.1519 25.3959 36.8192 25.2935 36.2818 25.14C35.0278 24.7561 34.0298 24.321 33.262 23.8348C32.4943 23.3486 31.9313 22.7599 31.5474 22.069C31.1635 21.378 30.9844 20.5335 30.9844 19.561C30.9844 18.7677 31.2403 17.9999 31.7265 17.2322C32.2384 16.4644 32.9293 15.8502 33.8506 15.364C34.7719 14.8777 35.8212 14.6474 37.024 14.6474C38.3291 14.6474 39.4296 14.9033 40.3509 15.4408C41.2722 15.9526 42.0399 16.618 42.6541 17.3857C42.7821 17.5904 42.8589 17.744 42.8589 17.8464C42.8589 17.9743 42.7565 18.1023 42.5774 18.2558L40.9651 19.5866C40.8371 19.7145 40.7092 19.7657 40.6068 19.7657C40.4532 19.7657 40.3253 19.6634 40.1717 19.4842C39.7367 18.998 39.3016 18.6141 38.841 18.3838C38.3803 18.1535 37.8173 18.0255 37.1263 18.0255C36.4098 18.0255 35.8468 18.1791 35.4373 18.4862C35.0278 18.7933 34.8231 19.1771 34.8231 19.6634C34.8231 20.0472 34.9255 20.3287 35.1558 20.5591C35.3605 20.7638 35.6676 20.9429 36.0259 21.0965C36.3842 21.25 36.9472 21.4292 37.715 21.6339C37.8047 21.6519 37.9071 21.6824 38.022 21.7167C38.071 21.7313 38.1221 21.7466 38.1756 21.7619C38.3547 21.8131 38.5339 21.8642 38.7386 21.941C40.2997 22.4273 41.4513 23.1182 42.2191 24.0907C42.9868 25.0376 43.3707 26.138 43.3707 27.3408C43.3707 28.4925 43.0636 29.4649 42.4494 30.2583C41.8096 31.0772 41.0163 31.6658 40.0182 32.0753C39.0201 32.4592 37.9709 32.6639 36.896 32.6639C35.5397 32.6639 34.3113 32.3824 33.2364 31.8194C32.1616 31.2563 31.2915 30.463 30.6517 29.4649L30.4981 29.1578ZM59.3399 27.4432C59.4934 27.4432 59.5958 27.4944 59.6725 27.6223L61.0801 29.337C61.1824 29.4905 61.2592 29.6185 61.2592 29.7464C61.2592 29.9 61.1824 30.0279 61.0545 30.1559C60.0308 31.0516 59.0328 31.6914 58.0091 32.1009C57.011 32.4847 55.9106 32.6895 54.759 32.6895C53.1979 32.6895 51.7136 32.28 50.3316 31.4867C48.9497 30.6677 47.8492 29.5929 47.0303 28.2109C46.2114 26.829 45.8019 25.3447 45.8019 23.7324C45.8019 22.0946 46.1858 20.5847 46.9535 19.2283C47.7213 17.8464 48.7705 16.7715 50.1269 15.9526C51.4832 15.1337 52.9931 14.7498 54.6566 14.7498C56.013 14.7498 57.3437 15.0825 58.6745 15.7478C60.0052 16.4132 61.1057 17.4113 61.9758 18.7677C62.8459 20.124 63.281 21.7875 63.281 23.758C63.281 24.1931 63.2298 24.5258 63.1274 24.7305C63.025 24.9352 62.8715 25.0632 62.7179 25.0888C62.5388 25.14 62.2573 25.1655 61.899 25.14H49.6151C49.7942 25.9589 50.1525 26.6754 50.6387 27.2896C51.125 27.9038 51.7392 28.3901 52.4557 28.7228C53.1723 29.0555 53.94 29.2346 54.759 29.2346C55.3988 29.2346 55.9362 29.1578 56.4224 29.0299C56.8831 28.9019 57.2669 28.7484 57.574 28.5692C57.9323 28.3645 58.265 28.1342 58.5721 27.8783L58.9816 27.5712C59.1095 27.4688 59.2375 27.4432 59.3399 27.4432ZM52.5581 18.5629C51.8927 18.8956 51.3297 19.3563 50.8435 19.9193C50.3572 20.4823 49.9989 21.1221 49.743 21.8386H59.4934C59.0839 20.7126 58.4441 19.7913 57.5996 19.1003C56.7551 18.4094 55.757 18.0767 54.6566 18.0767C53.94 18.0511 53.2235 18.2302 52.5581 18.5629ZM66.9917 14.8778H68.9622C69.2181 14.8778 69.3973 14.9033 69.5252 14.9801C69.6788 15.0569 69.7555 15.236 69.8067 15.5175L70.0882 17.0274C70.5489 16.2853 71.1375 15.7223 71.8541 15.3128C72.5706 14.9033 73.364 14.6986 74.2341 14.6986C75.181 14.6986 76.0511 14.9033 76.8444 15.3128C77.6633 15.7223 78.3287 16.1573 78.8406 16.5924C79.0453 16.7971 79.1477 16.9763 79.1477 17.1554C79.1477 17.2834 79.0965 17.4113 78.9941 17.5393L77.7145 19.3563C77.5866 19.5098 77.4842 19.5866 77.3307 19.5866C77.2027 19.5866 77.0491 19.5098 76.8956 19.4075C76.4349 19.1004 75.9487 18.8444 75.4369 18.6141C74.925 18.4094 74.3876 18.307 73.799 18.307C73.2104 18.307 72.6474 18.4606 72.1356 18.7421C71.5981 19.0236 71.1887 19.4586 70.856 20.0473C70.5233 20.6359 70.3697 21.3524 70.3697 22.2225V31.7938C70.3697 32.1777 70.1906 32.3568 69.8067 32.3568H66.9917C66.6334 32.3568 66.4542 32.1777 66.4542 31.7938V15.4664C66.4542 15.0825 66.6334 14.8778 66.9917 14.8778Z"></path>
    <path fill="var(--logo-fill-ut-testing)"
        d="M92.1226 12.0371H106.761C107.119 12.0371 107.298 12.2162 107.298 12.5745V15.1593C107.298 15.5175 107.119 15.7223 106.761 15.7223H101.361V31.8194C101.361 32.1776 101.182 32.3568 100.824 32.3568H97.8807C97.5224 32.3568 97.3433 32.1776 97.3433 31.8194V15.6967H92.097C91.7387 15.6967 91.5596 15.5175 91.5596 15.1337V12.5745C91.5852 12.2162 91.7643 12.0371 92.1226 12.0371Z"></path>
    <path fill="var(--logo-fill-ut-testing)"
        d="M120.376 27.4432C120.529 27.4432 120.632 27.4944 120.708 27.6223L122.116 29.337C122.218 29.4905 122.295 29.6185 122.295 29.7464C122.295 29.9 122.218 30.028 122.09 30.1559C121.067 31.0516 120.068 31.6914 119.045 32.1009C118.021 32.5103 116.946 32.6895 115.795 32.6895C114.234 32.6895 112.749 32.28 111.367 31.4867C109.985 30.6677 108.885 29.5929 108.066 28.211C107.247 26.829 106.838 25.3447 106.838 23.7324C106.838 22.0946 107.222 20.5847 107.989 19.2283C108.757 17.8464 109.806 16.7715 111.163 15.9526C112.519 15.1337 114.029 14.7498 115.692 14.7498C117.049 14.7498 118.405 15.0825 119.71 15.7479C121.041 16.4132 122.141 17.4113 123.012 18.7677C123.882 20.124 124.317 21.7875 124.317 23.758C124.317 24.1931 124.266 24.5258 124.163 24.7305C124.061 24.9352 123.907 25.0632 123.754 25.0888C123.575 25.14 123.293 25.1656 122.935 25.1656H110.676C110.856 25.9845 111.214 26.701 111.7 27.3152C112.186 27.9294 112.8 28.4157 113.517 28.7484C114.234 29.0811 115.001 29.2602 115.846 29.2602C116.486 29.2602 117.023 29.1834 117.509 29.0555C117.97 28.9275 118.354 28.774 118.661 28.5948C119.019 28.3901 119.352 28.1598 119.659 27.9039L120.068 27.5968C120.12 27.4688 120.248 27.4432 120.376 27.4432ZM113.568 18.5629C112.903 18.8956 112.34 19.3563 111.854 19.9193C111.367 20.4823 111.009 21.1221 110.753 21.8387H120.529C120.12 20.7126 119.48 19.7913 118.635 19.1004C117.791 18.4094 116.793 18.0767 115.667 18.0767C114.95 18.0511 114.208 18.2302 113.568 18.5629Z"></path>
    <path fill="var(--logo-fill-ut-testing)"
        d="M125.494 29.1578C125.468 29.0811 125.443 28.9787 125.443 28.9019C125.443 28.7228 125.519 28.5692 125.673 28.4157L127.413 27.0849C127.49 27.0081 127.592 26.957 127.72 26.9826C127.899 26.9826 128.079 27.0849 128.207 27.2897C128.642 27.9039 129.128 28.3901 129.64 28.7484C130.151 29.1067 130.791 29.2858 131.559 29.2858C132.045 29.2858 132.506 29.209 132.941 29.0299C133.402 28.8507 133.785 28.6204 134.067 28.3133C134.348 28.0062 134.502 27.6479 134.502 27.2641C134.502 26.8546 134.425 26.5475 134.246 26.3172C134.067 26.0869 133.837 25.9333 133.555 25.8053C133.274 25.6774 132.813 25.5238 132.199 25.3447C132.096 25.3191 131.789 25.2423 131.252 25.0632C129.998 24.6793 129 24.2443 128.232 23.758C127.464 23.2718 126.901 22.6832 126.517 21.9922C126.134 21.3012 125.954 20.4567 125.954 19.4842C125.954 18.6909 126.21 17.9231 126.697 17.1554C127.183 16.3876 127.899 15.7735 128.821 15.2872C129.742 14.801 130.791 14.5706 131.994 14.5706C133.274 14.5706 134.4 14.8266 135.321 15.364C136.242 15.9014 137.01 16.5412 137.624 17.3089C137.778 17.4881 137.829 17.6416 137.829 17.7696C137.829 17.8976 137.727 18.0511 137.547 18.1791L135.935 19.5098C135.782 19.6122 135.679 19.689 135.577 19.689C135.449 19.689 135.295 19.5866 135.142 19.4075C134.732 18.9212 134.272 18.5629 133.811 18.307C133.35 18.0767 132.762 17.9487 132.096 17.9487C131.38 17.9487 130.817 18.1023 130.407 18.4094C129.998 18.7165 129.793 19.1004 129.793 19.5866C129.793 19.9705 129.896 20.252 130.126 20.4823C130.356 20.7126 130.638 20.8918 130.996 21.0197C131.354 21.1733 131.943 21.3268 132.685 21.5571C132.839 21.5827 132.992 21.6339 133.146 21.6851C133.325 21.7363 133.504 21.7875 133.709 21.8642C135.27 22.3249 136.421 23.0415 137.189 24.0139C137.957 24.9864 138.341 26.0613 138.341 27.2641C138.341 28.3901 138.034 29.3626 137.419 30.1815C136.805 30.9748 135.986 31.589 134.988 31.9985C133.99 32.408 132.941 32.6127 131.866 32.5871C130.51 32.5871 129.281 32.3056 128.207 31.7426C127.132 31.1796 126.287 30.3862 125.622 29.3882C125.596 29.3626 125.545 29.2602 125.494 29.1578Z"></path>
    <path fill="var(--logo-fill-ut-testing)"
        d="M147.733 15.0057C148.117 15.0057 148.321 15.2104 148.321 15.5943V17.8464C148.321 18.0255 148.27 18.1791 148.142 18.2814C148.014 18.3838 147.861 18.435 147.682 18.435H145.711V26.957C145.711 27.5712 145.814 28.0574 146.044 28.4413C146.274 28.7996 146.658 29.0043 147.195 29.0299L147.631 29.0555C147.938 29.0811 148.142 29.1578 148.219 29.3114C148.296 29.4649 148.347 29.6441 148.321 29.8232V31.7682C148.321 32.2288 147.963 32.4592 147.272 32.4592C146.197 32.4592 145.251 32.2544 144.432 31.845C143.587 31.4355 142.947 30.8469 142.487 30.0791C142.026 29.3114 141.796 28.4157 141.796 27.392V18.4606H140.209C140.055 18.4606 139.902 18.4094 139.8 18.307C139.672 18.2047 139.62 18.0511 139.62 17.872V15.6455C139.62 15.4408 139.672 15.2872 139.8 15.1593C139.902 15.0569 140.055 15.0057 140.209 15.0057H141.796V12.1394C141.796 11.9347 141.821 11.8068 141.898 11.7044C141.975 11.602 142.128 11.5508 142.333 11.4741L145.123 10.6551C145.174 10.6295 145.225 10.6295 145.276 10.6295C145.327 10.6295 145.404 10.6551 145.455 10.6807C145.506 10.7063 145.558 10.7575 145.583 10.8087C145.66 10.9111 145.686 11.0646 145.686 11.2437V14.9801L147.733 15.0057Z"></path>
    <path fill="var(--logo-fill-ut-testing)"
        d="M152.058 8.63342H154.438C154.95 8.63342 155.206 8.91493 155.206 9.50354V11.9091C155.206 12.1907 155.155 12.3954 155.027 12.4977C154.899 12.6001 154.694 12.6769 154.438 12.6769H152.058C151.495 12.6769 151.214 12.421 151.214 11.9091V9.50354C151.214 8.91493 151.495 8.63342 152.058 8.63342ZM151.495 15.0313C151.597 14.9289 151.725 14.8778 151.879 14.8778H154.771C154.924 14.8778 155.052 14.9289 155.155 15.0313C155.257 15.1337 155.308 15.2616 155.308 15.4408V31.7938C155.308 32.1521 155.129 32.3568 154.771 32.3568H151.879C151.521 32.3568 151.342 32.1777 151.342 31.7938V15.4408C151.342 15.2616 151.393 15.1337 151.495 15.0313Z"></path>
    <path fill="var(--logo-fill-ut-testing)"
        d="M162.064 32.2032C161.911 32.3056 161.706 32.3568 161.527 32.3568H159.019C158.635 32.3568 158.43 32.152 158.43 31.7682V15.4407C158.43 15.0569 158.635 14.8521 159.019 14.8521H160.861C161.041 14.8521 161.245 14.9289 161.373 15.0569C161.527 15.1848 161.629 15.364 161.68 15.5431L161.911 17.5137C162.576 16.5668 163.369 15.8758 164.316 15.4152C165.263 14.9545 166.287 14.7242 167.336 14.7242C168.385 14.7242 169.409 14.9801 170.407 15.5175C171.405 16.0549 172.224 16.8739 172.889 17.9743C173.529 19.0747 173.862 20.4567 173.862 22.0946V31.7426C173.862 32.1264 173.683 32.3056 173.324 32.3056H170.586C170.202 32.3056 169.998 32.1264 169.998 31.7426V22.2225C169.998 21.5571 169.844 20.9429 169.511 20.3543C169.179 19.7657 168.718 19.2795 168.155 18.9212C167.566 18.5629 166.927 18.3838 166.21 18.3838C165.596 18.3838 164.982 18.5373 164.393 18.87C163.779 19.2027 163.293 19.6634 162.909 20.2776C162.525 20.8918 162.32 21.6083 162.32 22.4017V31.717C162.295 31.9473 162.218 32.0753 162.064 32.2032Z"></path>
    <path fill="var(--logo-fill-ut-testing)"
        d="M192.851 33.9946C192.083 35.3766 191.06 36.4258 189.729 37.1424C188.398 37.859 186.863 38.1917 185.148 38.1917C183.996 38.1917 182.87 37.9869 181.77 37.6031C180.644 37.2192 179.697 36.6818 178.904 36.0164C178.75 35.8884 178.673 35.7605 178.673 35.6069C178.673 35.5045 178.724 35.3766 178.852 35.1974L180.004 33.534C180.132 33.3549 180.286 33.2525 180.49 33.2525C180.644 33.2525 180.797 33.3037 180.977 33.4316C182.179 34.2762 183.664 34.6856 185.481 34.6856C186.402 34.6856 187.221 34.4809 187.937 34.0714C188.654 33.6875 189.243 33.0989 189.626 32.3824C190.036 31.6658 190.241 30.8469 190.241 29.9256V29.8744C189.473 30.6933 188.654 31.3075 187.809 31.717C186.965 32.1265 185.967 32.3312 184.841 32.3312C183.331 32.3312 181.898 31.9729 180.593 31.2052C179.262 30.463 178.213 29.4138 177.419 28.083C176.626 26.7522 176.217 25.2423 176.242 23.5533C176.242 21.9666 176.626 20.4823 177.419 19.1259C178.213 17.7696 179.262 16.6692 180.593 15.8502C181.923 15.0313 183.331 14.6218 184.841 14.6218C187.016 14.6218 188.884 15.4663 190.445 17.1298L190.676 15.5175C190.701 15.2616 190.778 15.0825 190.88 14.9801C190.983 14.8777 191.136 14.8266 191.341 14.8266H193.542C193.875 14.8266 194.054 15.0313 194.054 15.4152V28.8507C193.977 30.9237 193.593 32.6127 192.851 33.9946ZM189.626 20.9174C189.166 20.0984 188.552 19.433 187.758 18.9468C186.965 18.4606 186.095 18.2046 185.097 18.2046C184.073 18.2046 183.177 18.4606 182.384 18.9468C181.591 19.433 181.002 20.0984 180.541 20.9429C180.106 21.7875 179.876 22.6832 179.876 23.6812C179.876 24.7305 180.106 25.6518 180.567 26.4707C181.028 27.2897 181.668 27.9294 182.461 28.3901C183.254 28.8507 184.15 29.0811 185.122 29.0811C186.095 29.0811 186.965 28.8507 187.733 28.3645C188.5 27.8783 189.115 27.2129 189.575 26.3939C190.01 25.5494 190.241 24.6537 190.241 23.6812C190.292 22.6576 190.062 21.7363 189.626 20.9174Z"></path>
    <path fill="var(--logo-fill-ut-testing)"
        d="M197.304 14.8777C196.203 14.8777 195.308 15.7734 195.308 16.8739C195.308 17.9743 196.203 18.87 197.304 18.87C198.404 18.87 199.3 17.9743 199.3 16.8739C199.3 15.799 198.404 14.8777 197.304 14.8777ZM197.304 18.4605C196.459 18.4605 195.743 17.744 195.743 16.8739C195.743 16.0037 196.459 15.2872 197.304 15.2872C198.148 15.2872 198.865 15.9782 198.865 16.8739C198.865 17.744 198.148 18.4605 197.304 18.4605Z"></path>
    <path fill="var(--logo-fill-ut-testing)"
        d="M196.536 15.799C196.536 15.799 196.562 15.7734 196.587 15.7734H197.509C197.637 15.7734 197.764 15.799 197.867 15.8758C197.969 15.9526 198.046 16.0294 198.123 16.1317C198.174 16.2341 198.225 16.362 198.225 16.49C198.225 16.618 198.2 16.7203 198.123 16.8483C198.046 16.9506 197.969 17.053 197.841 17.1042L198.251 17.8975V17.9231V17.9487H198.225H197.841C197.816 17.9487 197.816 17.9487 197.79 17.9487C197.79 17.9487 197.764 17.9231 197.764 17.8975L197.406 17.181H196.971V17.8719C196.971 17.9231 196.946 17.9231 196.92 17.9231H196.613C196.562 17.9231 196.562 17.8975 196.562 17.8719V15.799C196.511 15.8246 196.511 15.799 196.536 15.799ZM196.946 16.8483H197.406C197.483 16.8483 197.534 16.8227 197.585 16.7971C197.637 16.7715 197.688 16.7203 197.713 16.6691C197.739 16.618 197.764 16.5668 197.764 16.49C197.764 16.4388 197.739 16.362 197.713 16.3109C197.688 16.2597 197.637 16.2085 197.585 16.1829C197.534 16.1573 197.483 16.1317 197.406 16.1317H196.946V16.8483Z"></path>
</svg>